<?xml version="1.0" encoding="UTF-8" standalone="no"?>
<!-- Created with Inkscape (http://www.inkscape.org/) -->

<svg
   version="1.1"
   id="svg1"
   width="409.29413"
   height="272.32047"
   viewBox="0 0 409.29413 272.32047"
   sodipodi:docname="Available.svg"
   inkscape:version="1.4.2 (f4327f4, 2025-05-13)"
   xmlns:inkscape="http://www.inkscape.org/namespaces/inkscape"
   xmlns:sodipodi="http://sodipodi.sourceforge.net/DTD/sodipodi-0.dtd"
   xmlns="http://www.w3.org/2000/svg"
   xmlns:svg="http://www.w3.org/2000/svg">
  <defs
     id="defs1" />
  <sodipodi:namedview
     id="namedview1"
     pagecolor="#ffffff"
     bordercolor="#000000"
     borderopacity="0.25"
     inkscape:showpageshadow="2"
     inkscape:pageopacity="0.0"
     inkscape:pagecheckerboard="0"
     inkscape:deskcolor="#d1d1d1"
     inkscape:zoom="2.1386719"
     inkscape:cx="210.17717"
     inkscape:cy="64.292237"
     inkscape:window-width="2560"
     inkscape:window-height="1334"
     inkscape:window-x="-11"
     inkscape:window-y="-11"
     inkscape:window-maximized="1"
     inkscape:current-layer="g1" />
  <g
     inkscape:groupmode="layer"
     inkscape:label="Image"
     id="g1"
     transform="translate(-45.763387,-191.84038)">
    <path
       style="fill:#050505;stroke:none"
       d="m 110.38904,191.86998 c -5.35836,0.33545 -9.51751,5.62271 -12.996139,9.13733 -10.013015,10.11664 -18.777488,21.74127 -25.993057,34 -30.804847,52.33521 -34.616989,118.2691 -7.251541,173 8.137573,16.27515 18.692474,31.83591 31.280088,45 4.12526,4.31418 10.088629,12.31323 16.956789,11.0108 6.19554,-1.17486 8.39685,-7.9237 5.26157,-13.0108 -8.80116,-14.28018 -22.976939,-25.19788 -31.85802,-40 -40.786488,-67.97888 -23.671555,-146.2865 28.55633,-202 5.07772,-5.4166 7.46985,-17.85263 -3.95602,-17.13733 m 279.00076,0 c -6.09002,0.38263 -9.45935,6.80429 -6.82098,12.13733 4.70108,9.50244 15.96942,17.37888 22.44522,26 43.87326,58.40775 43.35379,138.8949 -0.7554,197 -6.28482,8.27899 -17.14887,15.8212 -21.68982,25 -2.63837,5.33301 0.73096,11.7547 6.82098,12.13733 6.14737,0.38626 11.15924,-6.21741 14.98459,-10.13733 11.29407,-11.5733 20.43701,-25.01627 28.43595,-39 31.26431,-54.65634 28.72586,-124.00461 -2.27161,-178 -7.47037,-13.01285 -16.58829,-25.32541 -27.15354,-36 -3.64266,-3.68036 -8.20779,-9.50098 -13.99539,-9.13733 m -251,46.16202 c -9.54722,4.63205 -17.4573,17.30688 -22.94752,25.97531 -19.718029,31.13245 -24.278016,72.53198 -10.6034,107 5.85269,14.75217 14.24192,28.36932 25.26853,39.83026 4.05632,4.2161 9.72305,10.60642 16.17283,6.99072 4.56633,-2.55984 4.87861,-8.578 2.25541,-12.63656 -9.54647,-14.77011 -21.78432,-24.97672 -28.09337,-42.18442 -10.30233,-28.09924 -7.82163,-60.15985 7.55092,-86 5.70732,-9.5936 17.47729,-18.05762 21.54089,-28.04013 2.89319,-7.10736 -3.94052,-14.43024 -11.14429,-10.93518 m 217.04322,-0.28162 c -4.74857,1.90024 -6.11759,7.81888 -3.72684,12.08716 6.86575,12.25775 18.58545,21.02722 24.89892,34.16977 13.77805,28.68127 13.49576,64.02277 -2.07794,92 -6.13962,11.02945 -17.17868,19.23749 -22.82406,30.03937 -3.2479,6.21448 1.19085,14.27182 8.68594,12.62729 10.48914,-2.30149 21.04752,-20.01111 26.13889,-28.66666 20.17251,-34.29407 22.28244,-75.60483 6.43673,-112 -5.31085,-12.19824 -13.29733,-23.4068 -22.48996,-32.96063 -3.8916,-4.04453 -8.71396,-9.82846 -15.04168,-7.2963 m -185.04398,45.00308 c -5.93694,2.18595 -10.26201,9.09806 -13.38426,14.25385 -10.06429,16.61917 -11.13086,37.21133 -3.60109,55 3.18429,7.52271 12.52658,25.22211 22.96992,21.25385 5.22034,-1.98359 6.88857,-7.58521 4.1574,-12.25385 -9.81725,-16.78146 -20.34824,-28.40308 -11.67746,-49 2.91571,-6.92612 12.51056,-13.63037 13.00232,-21 0.40059,-6.00336 -5.99662,-10.26794 -11.46683,-8.25385 m 154.01852,0 c -5.06967,1.94053 -6.7915,7.69605 -4.15741,12.25385 9.69761,16.77985 20.33893,28.41812 11.67438,49 -2.91574,6.92606 -12.51056,13.6304 -13.00232,21 -0.36972,5.54102 5.19611,9.82782 10.46683,8.55093 6.11707,-1.48196 10.40674,-8.66165 13.64429,-13.55093 11.125,-16.80078 12.01816,-38.79544 3.91665,-57 -3.24963,-7.30212 -12.40283,-24.13498 -22.54242,-20.25385 m -80.01852,11.71836 c -43.46808,7.83719 -31.26053,74.87076 12,67.07098 43.45309,-7.8345 31.31131,-74.87991 -12,-67.07098 m 2,16.92593 c 21.61673,-4.7012 29.49979,28.38669 8,33.21604 -21.60173,4.85226 -29.55516,-28.52823 -8,-33.21604 z"
       id="path1" />
  </g>
</svg>
