<?xml version="1.0" encoding="UTF-8" standalone="no"?>
<!-- Uploaded to: SVG Repo, www.svgrepo.com, Generator: SVG Repo Mixer Tools -->

<svg
   height="800px"
   width="800px"
   version="1.1"
   id="_x32_"
   viewBox="0 0 512 512"
   xml:space="preserve"
   sodipodi:docname="EYE-HORUS-L.svg"
   inkscape:version="1.4.2 (f4327f4, 2025-05-13)"
   xmlns:inkscape="http://www.inkscape.org/namespaces/inkscape"
   xmlns:sodipodi="http://sodipodi.sourceforge.net/DTD/sodipodi-0.dtd"
   xmlns="http://www.w3.org/2000/svg"
   xmlns:svg="http://www.w3.org/2000/svg"><defs
   id="defs3" /><sodipodi:namedview
   id="namedview3"
   pagecolor="#ffffff"
   bordercolor="#000000"
   borderopacity="0.25"
   inkscape:showpageshadow="2"
   inkscape:pageopacity="0.0"
   inkscape:pagecheckerboard="0"
   inkscape:deskcolor="#d1d1d1"
   inkscape:zoom="1.36875"
   inkscape:cx="399.6347"
   inkscape:cy="400"
   inkscape:window-width="2560"
   inkscape:window-height="1334"
   inkscape:window-x="-11"
   inkscape:window-y="-11"
   inkscape:window-maximized="1"
   inkscape:current-layer="_x32_" />
<style
   type="text/css"
   id="style1">
	.st0{fill:#ff9494;}
</style>
<g
   id="g3"
   transform="matrix(-1,0,0,1,511.99941,0)">
	<path
   class="st0"
   d="m 471.742,248.28 c -7.719,-1.536 -61.871,-17.541 -87.135,-30.171 -40.959,-20.482 -84.04,-48.227 -157.872,-48.227 -73.84,0 -131.657,38.023 -169.914,63.18 -15.497,10.204 -28.877,18.997 -36.596,20.548 -3.72,0.742 -6.4,4.006 -6.4,7.8 0,3.793 2.679,7.065 6.4,7.808 7.719,1.543 21.099,10.351 36.596,20.54 17.482,11.498 39.063,25.679 64.378,37.684 37.108,20.592 149.756,83.308 178.607,101.769 41.831,26.767 111.583,17.85 128.691,-28.193 1.919,-3.397 3.024,-7.323 3.024,-11.506 0,-12.946 -10.502,-23.452 -23.459,-23.452 -12.954,0 -23.455,10.506 -23.455,23.452 0,8.852 4.896,16.534 12.122,20.541 -24.025,11.931 -66.33,-0.97 -87.782,-13.042 -17.096,-9.608 -53.034,-29.494 -79.5,-44.109 72.454,-0.816 126.164,-33.958 165.985,-55.402 23.459,-12.63 68.59,-32.06 76.31,-33.612 3.716,-0.735 6.4,-4.006 6.4,-7.8 0,-3.802 -2.684,-7.066 -6.4,-7.808 z m -245.398,72.545 c -88.859,0 -137.956,-54.284 -163.592,-59.416 25.636,-5.124 75.123,-66.76 163.982,-66.76 88.855,0 138.343,61.636 163.974,66.76 -25.63,5.132 -75.504,59.416 -164.364,59.416 z"
   id="path1" />
	<path
   class="st0"
   d="m 168.995,257.807 c 0,31.877 25.852,57.732 57.74,57.732 31.884,0 57.736,-25.856 57.736,-57.732 0,-31.891 -25.851,-57.74 -57.736,-57.74 -31.888,0.001 -57.74,25.849 -57.74,57.74 z"
   id="path2" />
	<path
   class="st0"
   d="M 452.492,150.827 C 395.436,131.8 317.85,73.76 224.025,68.349 130.204,62.931 67.05,99.027 9.314,135.116 c -23.456,16.24 1.804,57.732 27.068,41.493 29.311,-18.842 65.554,-63.276 175.616,-63.276 110.061,0 247.713,112.061 298.909,57.858 7.216,-5.404 -22.33,-8.344 -58.415,-20.364 z"
   id="path3" />
</g>
</svg>
