<?xml version="1.0" encoding="UTF-8" standalone="no"?>
<!-- Created with Inkscape (http://www.inkscape.org/) -->

<svg
   version="1.1"
   id="svg1"
   width="479.84378"
   height="480.03256"
   viewBox="0 0 479.84378 480.03256"
   sodipodi:docname="patient.svg"
   inkscape:version="1.4.2 (f4327f4, 2025-05-13)"
   xmlns:inkscape="http://www.inkscape.org/namespaces/inkscape"
   xmlns:sodipodi="http://sodipodi.sourceforge.net/DTD/sodipodi-0.dtd"
   xmlns="http://www.w3.org/2000/svg"
   xmlns:svg="http://www.w3.org/2000/svg">
  <defs
     id="defs1" />
  <sodipodi:namedview
     id="namedview1"
     pagecolor="#ffffff"
     bordercolor="#000000"
     borderopacity="0.25"
     inkscape:showpageshadow="2"
     inkscape:pageopacity="0.0"
     inkscape:pagecheckerboard="0"
     inkscape:deskcolor="#d1d1d1"
     inkscape:zoom="2.1386719"
     inkscape:cx="233.32237"
     inkscape:cy="246.18082"
     inkscape:window-width="2560"
     inkscape:window-height="1334"
     inkscape:window-x="-11"
     inkscape:window-y="-11"
     inkscape:window-maximized="1"
     inkscape:current-layer="g1" />
  <g
     inkscape:groupmode="layer"
     inkscape:label="Image"
     id="g1"
     transform="translate(-22.578539,-9.921458)">
    <path
       style="fill:#000000"
       d="M 52.078539,488.4905 C 40.347317,485.22625 31.762783,478.10825 26.350882,467.15801 L 22.578539,459.5252 V 341.92147 224.31774 l 3.73472,-7.55669 c 4.499631,-9.10438 10.292766,-14.77452 19.585671,-19.16982 6.53201,-3.08947 7.049734,-3.16715 23.429609,-3.51535 l 16.75,-0.35607 V 104.27519 14.830548 l 2.454545,-2.45454 2.454546,-2.45455 h 139.09091 139.09091 l 2.45454,2.45455 c 2.36445,2.36445 2.45455,2.95174 2.45455,16 v 13.54545 h 13.54545 c 13.04826,0 13.63555,0.0901 16,2.45455 l 2.45455,2.45454 v 61.545472 61.54545 h 25.86351 c 14.22493,0 28.28743,0.44946 31.25,0.99879 19.02164,3.52709 34.65803,19.79677 38.02645,39.56657 l 1.20381,7.06536 -31.3483,113.43464 c -17.24157,62.38905 -32.17591,117.48464 -33.18742,122.43464 -2.29967,11.25381 -5.85447,18.64166 -11.85896,24.64615 -5.21744,5.21744 -10.99306,8.50282 -18.44909,10.4945 -7.11863,1.90155 -348.655999,1.83274 -355.500001,-0.0716 z M 406.38865,472.33147 c 5.65696,-1.92752 12.75883,-9.35904 14.50109,-15.17418 0.88081,-2.93988 1.1888,-27.66194 1.1888,-95.4237 0,-102.56053 0.38167,-97.08033 -7.28464,-104.59651 -7.80841,-7.65548 -0.70435,-7.21561 -116.53543,-7.21561 H 194.68985 l -20.08687,-20 -20.08686,-20 h -48.04065 c -54.264595,0 -54.009568,-0.0304 -61.181316,7.28464 -7.68204,7.8355 -7.215615,-0.22285 -7.215615,124.66295 0,126.56694 -0.56937,117.6579 8.012548,125.37378 2.657905,2.38969 6.329907,4.82404 8.160003,5.40967 2.294882,0.73436 56.72443,1.09646 175.39931,1.16687 154.83095,0.0919 172.53942,-0.0572 176.73825,-1.48791 z M 192.53309,447.46692 c -2.45417,-2.45416 -2.45455,-2.45791 -2.45455,-24 v -21.54545 h -21.54545 c -21.54209,0 -21.54584,-3.8e-4 -24,-2.45455 l -2.45455,-2.45454 v -35.09091 -35.09091 l 2.45455,-2.45454 c 2.45416,-2.45417 2.45791,-2.45455 24,-2.45455 h 21.54545 v -21.54545 c 0,-21.54209 3.8e-4,-21.54584 2.45455,-24 l 2.45454,-2.45455 h 35.09091 35.09091 l 2.45454,2.45455 c 2.45417,2.45416 2.45455,2.45791 2.45455,24 v 21.54545 h 21.54545 c 21.54209,0 21.54584,3.8e-4 24,2.45455 l 2.45455,2.45454 v 35.09091 35.09091 l -2.45455,2.45454 c -2.45416,2.45417 -2.45791,2.45455 -24,2.45455 h -21.54545 v 21.54545 c 0,21.54209 -3.8e-4,21.54584 -2.45455,24 l -2.45454,2.45455 h -35.09091 -35.09091 z m 61.54545,-35.0909 c 0,-28.78065 -2.3261,-26.45455 26.45455,-26.45455 h 21.54545 v -24 -24 h -21.54545 c -28.78065,0 -26.45455,2.3261 -26.45455,-26.45455 v -21.54545 h -24 -24 v 21.54545 c 0,28.78065 2.3261,26.45455 -26.45455,26.45455 h -21.54545 v 24 24 h 21.54545 c 28.78065,0 26.45455,-2.3261 26.45455,26.45455 v 21.54545 h 24 24 z M 463.15528,300.42147 c 23.04793,-83.55771 23.16407,-84.02867 22.05839,-89.44547 -2.16152,-10.58938 -11.33739,-20.5054 -21.92279,-23.69114 -3.32948,-1.00203 -11.51186,-1.36339 -30.87127,-1.36339 h -26.34107 v 24.5 c 0,20.03982 0.24861,24.5 1.36564,24.5 0.75111,0 4.523,1.57956 8.38198,3.51013 8.52665,4.26571 14.30364,10.26721 18.58786,19.31026 l 3.16452,6.67961 0.34806,62.5 c 0.20269,36.39452 0.70533,61.45578 1.20341,60 0.47044,-1.375 11.28181,-40.3 24.02527,-86.5 z m -105.07674,-170.5 V 25.921458 h -128 -128 v 84.000012 84 h 29.69967 29.69967 l 20.05033,19.99324 20.05033,19.99325 78.25,0.007 78.25,0.007 z m -96,80 v -8 h 40 40 v 8 8 h -40 -40 z m 0,-32 v -8 h 40 40 v 8 8 h -40 -40 z m -144,-21.63398 c 0,-16.96902 0.94692,-20.38071 7.46612,-26.8999 5.89987,-5.89988 10.18889,-7.46612 20.44535,-7.46612 6.28928,0 7.48377,-0.30433 9.63398,-2.45455 3.18703,-3.18702 3.16358,-7.41181 -0.0675,-12.17315 -4.52268,-6.66454 -5.74049,-13.151782 -5.30432,-28.255962 0.38179,-13.22092 0.49146,-13.79935 3.77653,-19.91773 3.76572,-7.01361 6.90028,-10.04421 14.44245,-13.96346 4.34005,-2.25529 6.38456,-2.65734 13.60744,-2.67586 7.78235,-0.02 9.03153,0.26483 14.79554,3.37305 6.85597,3.69706 11.03242,8.24615 14.44896,15.73815 1.8259,4.00395 2.26606,7.07969 2.57497,17.99324 0.41362,14.61295 -0.83204,21.128542 -5.29737,27.708572 -3.23113,4.76134 -3.25458,8.98613 -0.0675,12.17315 2.15021,2.15022 3.3447,2.45455 9.63398,2.45455 10.25646,0 14.54548,1.56624 20.44535,7.46612 6.5192,6.51919 7.46612,9.93088 7.46612,26.8999 v 13.63398 h -8 -8 v -13.38922 c 0,-17.61148 -0.16431,-17.84499 -13.14952,-18.68754 -12.69678,-0.82384 -19.50985,-4.51905 -23.83776,-12.92895 l -1.80411,-3.5057 -9.22095,0.0545 c -9.18392,0.0543 -9.22698,0.0664 -10.72311,3.0057 -4.45611,8.75457 -11.27156,12.53359 -24.11503,13.37128 -12.98539,0.84696 -13.14962,1.08039 -13.14962,18.69071 v 13.38922 h -8 -8 z m 72.7627,-53.03817 c 6.22691,-4.649062 6.7373,-6.264772 6.7373,-21.327852 0,-15.12547 -0.49523,-16.66748 -6.88512,-21.43822 -3.87219,-2.89101 -13.35757,-2.89101 -17.22976,0 -6.00088,4.48031 -6.85758,6.68706 -7.22642,18.6145 -0.18772,6.07024 -0.0573,12.55061 0.28979,14.40082 0.774,4.12577 4.91299,9.216402 9.00193,11.071672 4.04729,1.83636 12.00263,1.15009 15.31228,-1.32092 z m 71.2373,42.67215 v -8 h 40 40 v 8 8 h -40 -40 z m 0,-32 v -8 h 40 40 v 8 8 h -40 -40 z m 2.45455,-26.454552 c -2.43464,-2.43463 -2.45455,-2.60943 -2.45455,-21.54546 0,-18.93602 0.0199,-19.11082 2.45455,-21.54545 l 2.45454,-2.45455 h 35.09091 35.09091 l 2.45454,2.45455 c 2.43464,2.43463 2.45455,2.60943 2.45455,21.54545 0,18.93603 -0.0199,19.11083 -2.45455,21.54546 l -2.45454,2.45455 h -35.09091 -35.09091 z m 61.54545,-21.54546 v -8 h -24 -24 v 8 8 h 24 24 z m 64,80.000012 V 57.921458 h -8 -8 v 88.000012 88 h 8 8 z"
       id="path1" />
  </g>
</svg>
