<?xml version="1.0" encoding="UTF-8" standalone="no"?>
<!-- Created with Inkscape (http://www.inkscape.org/) -->

<svg
   version="1.1"
   id="svg1"
   width="457.19275"
   height="459.05637"
   viewBox="0 0 457.19275 459.05637"
   sodipodi:docname="start.svg"
   inkscape:version="1.4.2 (f4327f4, 2025-05-13)"
   xmlns:inkscape="http://www.inkscape.org/namespaces/inkscape"
   xmlns:sodipodi="http://sodipodi.sourceforge.net/DTD/sodipodi-0.dtd"
   xmlns="http://www.w3.org/2000/svg"
   xmlns:svg="http://www.w3.org/2000/svg">
  <defs
     id="defs1" />
  <sodipodi:namedview
     id="namedview1"
     pagecolor="#ffffff"
     bordercolor="#000000"
     borderopacity="0.25"
     inkscape:showpageshadow="2"
     inkscape:pageopacity="0.0"
     inkscape:pagecheckerboard="0"
     inkscape:deskcolor="#d1d1d1"
     inkscape:zoom="2.1386719"
     inkscape:cx="222.80183"
     inkscape:cy="220.93151"
     inkscape:window-width="2560"
     inkscape:window-height="1334"
     inkscape:window-x="-11"
     inkscape:window-y="-11"
     inkscape:window-maximized="1"
     inkscape:current-layer="g1" />
  <g
     inkscape:groupmode="layer"
     inkscape:label="Image"
     id="g1"
     transform="translate(-33.032162,-35.085496)">
    <path
       style="fill:#030303;stroke:none"
       d="m 243.61096,36.308395 c -43.67516,5.737305 -84.4166,18.066498 -120,45.229953 C 23.24088,158.15828 2.0541662,307.28182 81.411885,406.88402 c 14.605866,18.33188 31.671275,34.62427 51.199075,47.66666 21.37299,14.27475 45.00214,25.62768 70,31.9591 27.98137,7.0871 57.29329,9.53311 86,6.08875 34.24411,-4.10877 68.15005,-15.69763 97,-34.71759 30.42535,-20.0586 56.39319,-46.23389 74.57251,-77.99692 56.57178,-98.84262 31.51132,-229.85266 -60.57251,-298.370362 -22.01654,-16.38205 -46.62274,-28.97281 -73,-36.628877 -25.97705,-7.539917 -55.9595,-12.12851 -83,-8.576386 m 0,31.861113 c 23.52307,-2.78448 49.34308,0.21262 72,6.71451 23.68304,6.79639 46.52368,17.82306 66,33.013882 83.58389,65.19236 102.52423,187.97489 39.26544,273.98612 -13.53909,18.40872 -30.332,34.45703 -49.26544,47.25464 -27.61932,18.66858 -59.14905,28.57107 -92,32.45987 -20.7444,2.45566 -42.72975,-0.12915 -63,-4.50464 -21.66544,-4.67661 -42.3051,-13.68631 -61,-25.52933 -117.27073,-74.28955 -121.333634,-252.57178 -5,-330.1651 28.27563,-18.859562 59.40906,-29.253692 93,-33.229952 m -47,90.232272 c -17.33807,3.69904 -25.24168,19.06323 -25.96065,35.48224 -1.40994,32.19867 -0.0394,64.76721 -0.0394,97 0,18.31073 -2.67291,39.07364 1.52855,57 4.12706,17.60892 22.5451,26.72571 39.47145,23.53241 14.51004,-2.73746 29.14511,-14.25491 42,-21.22376 29.00543,-15.72436 58.30576,-31.0205 87,-47.30865 14.96503,-8.49481 30.78119,-15.67548 32.82639,-35 1.95309,-18.4541 -11.42362,-29.15033 -25.82639,-37.13889 -34.15948,-18.94671 -68.40808,-37.97305 -103,-56.11651 -14.94292,-7.83756 -30.06625,-20.05298 -48,-16.22684 m 145,105.48224 v 2 l -83,45.30865 -55,29.69135 c -3.11008,-10.52185 -1,-24.04492 -1,-35 v -70 c 0,-14.46497 -3.09914,-33.13208 1,-47 l 55,29.69135 z"
       id="path1" />
  </g>
</svg>
